<svg xmlns="http://www.w3.org/2000/svg" viewBox="0 0 1600 900" width="1600" height="900" role="img" aria-labelledby="ttl">
<title id="ttl">Schematic plan of Hyakudan-en: one hundred square beds in a ten by ten grid, with stair runs between the columns and a level change at every row.</title>
<rect width="1600" height="900" fill="#ffffff"/>
<g font-family="-apple-system, BlinkMacSystemFont, 'Segoe UI', system-ui, sans-serif">
<rect x="469" y="70" width="22" height="706" fill="#d8d5cc"/>
<rect x="549" y="70" width="22" height="706" fill="#d8d5cc"/>
<rect x="629" y="70" width="22" height="706" fill="#d8d5cc"/>
<rect x="709" y="70" width="22" height="706" fill="#d8d5cc"/>
<rect x="789" y="70" width="22" height="706" fill="#d8d5cc"/>
<rect x="869" y="70" width="22" height="706" fill="#d8d5cc"/>
<rect x="949" y="70" width="22" height="706" fill="#d8d5cc"/>
<rect x="1029" y="70" width="22" height="706" fill="#d8d5cc"/>
<rect x="1109" y="70" width="22" height="706" fill="#d8d5cc"/>
<path d="M469 70h22M469 86h22M469 102h22M469 118h22M469 134h22M469 150h22M469 166h22M469 182h22M469 198h22M469 214h22M469 230h22M469 246h22M469 262h22M469 278h22M469 294h22M469 310h22M469 326h22M469 342h22M469 358h22M469 374h22M469 390h22M469 406h22M469 422h22M469 438h22M469 454h22M469 470h22M469 486h22M469 502h22M469 518h22M469 534h22M469 550h22M469 566h22M469 582h22M469 598h22M469 614h22M469 630h22M469 646h22M469 662h22M469 678h22M469 694h22M469 710h22M469 726h22M469 742h22M469 758h22M549 70h22M549 86h22M549 102h22M549 118h22M549 134h22M549 150h22M549 166h22M549 182h22M549 198h22M549 214h22M549 230h22M549 246h22M549 262h22M549 278h22M549 294h22M549 310h22M549 326h22M549 342h22M549 358h22M549 374h22M549 390h22M549 406h22M549 422h22M549 438h22M549 454h22M549 470h22M549 486h22M549 502h22M549 518h22M549 534h22M549 550h22M549 566h22M549 582h22M549 598h22M549 614h22M549 630h22M549 646h22M549 662h22M549 678h22M549 694h22M549 710h22M549 726h22M549 742h22M549 758h22M629 70h22M629 86h22M629 102h22M629 118h22M629 134h22M629 150h22M629 166h22M629 182h22M629 198h22M629 214h22M629 230h22M629 246h22M629 262h22M629 278h22M629 294h22M629 310h22M629 326h22M629 342h22M629 358h22M629 374h22M629 390h22M629 406h22M629 422h22M629 438h22M629 454h22M629 470h22M629 486h22M629 502h22M629 518h22M629 534h22M629 550h22M629 566h22M629 582h22M629 598h22M629 614h22M629 630h22M629 646h22M629 662h22M629 678h22M629 694h22M629 710h22M629 726h22M629 742h22M629 758h22M709 70h22M709 86h22M709 102h22M709 118h22M709 134h22M709 150h22M709 166h22M709 182h22M709 198h22M709 214h22M709 230h22M709 246h22M709 262h22M709 278h22M709 294h22M709 310h22M709 326h22M709 342h22M709 358h22M709 374h22M709 390h22M709 406h22M709 422h22M709 438h22M709 454h22M709 470h22M709 486h22M709 502h22M709 518h22M709 534h22M709 550h22M709 566h22M709 582h22M709 598h22M709 614h22M709 630h22M709 646h22M709 662h22M709 678h22M709 694h22M709 710h22M709 726h22M709 742h22M709 758h22M789 70h22M789 86h22M789 102h22M789 118h22M789 134h22M789 150h22M789 166h22M789 182h22M789 198h22M789 214h22M789 230h22M789 246h22M789 262h22M789 278h22M789 294h22M789 310h22M789 326h22M789 342h22M789 358h22M789 374h22M789 390h22M789 406h22M789 422h22M789 438h22M789 454h22M789 470h22M789 486h22M789 502h22M789 518h22M789 534h22M789 550h22M789 566h22M789 582h22M789 598h22M789 614h22M789 630h22M789 646h22M789 662h22M789 678h22M789 694h22M789 710h22M789 726h22M789 742h22M789 758h22M869 70h22M869 86h22M869 102h22M869 118h22M869 134h22M869 150h22M869 166h22M869 182h22M869 198h22M869 214h22M869 230h22M869 246h22M869 262h22M869 278h22M869 294h22M869 310h22M869 326h22M869 342h22M869 358h22M869 374h22M869 390h22M869 406h22M869 422h22M869 438h22M869 454h22M869 470h22M869 486h22M869 502h22M869 518h22M869 534h22M869 550h22M869 566h22M869 582h22M869 598h22M869 614h22M869 630h22M869 646h22M869 662h22M869 678h22M869 694h22M869 710h22M869 726h22M869 742h22M869 758h22M949 70h22M949 86h22M949 102h22M949 118h22M949 134h22M949 150h22M949 166h22M949 182h22M949 198h22M949 214h22M949 230h22M949 246h22M949 262h22M949 278h22M949 294h22M949 310h22M949 326h22M949 342h22M949 358h22M949 374h22M949 390h22M949 406h22M949 422h22M949 438h22M949 454h22M949 470h22M949 486h22M949 502h22M949 518h22M949 534h22M949 550h22M949 566h22M949 582h22M949 598h22M949 614h22M949 630h22M949 646h22M949 662h22M949 678h22M949 694h22M949 710h22M949 726h22M949 742h22M949 758h22M1029 70h22M1029 86h22M1029 102h22M1029 118h22M1029 134h22M1029 150h22M1029 166h22M1029 182h22M1029 198h22M1029 214h22M1029 230h22M1029 246h22M1029 262h22M1029 278h22M1029 294h22M1029 310h22M1029 326h22M1029 342h22M1029 358h22M1029 374h22M1029 390h22M1029 406h22M1029 422h22M1029 438h22M1029 454h22M1029 470h22M1029 486h22M1029 502h22M1029 518h22M1029 534h22M1029 550h22M1029 566h22M1029 582h22M1029 598h22M1029 614h22M1029 630h22M1029 646h22M1029 662h22M1029 678h22M1029 694h22M1029 710h22M1029 726h22M1029 742h22M1029 758h22M1109 70h22M1109 86h22M1109 102h22M1109 118h22M1109 134h22M1109 150h22M1109 166h22M1109 182h22M1109 198h22M1109 214h22M1109 230h22M1109 246h22M1109 262h22M1109 278h22M1109 294h22M1109 310h22M1109 326h22M1109 342h22M1109 358h22M1109 374h22M1109 390h22M1109 406h22M1109 422h22M1109 438h22M1109 454h22M1109 470h22M1109 486h22M1109 502h22M1109 518h22M1109 534h22M1109 550h22M1109 566h22M1109 582h22M1109 598h22M1109 614h22M1109 630h22M1109 646h22M1109 662h22M1109 678h22M1109 694h22M1109 710h22M1109 726h22M1109 742h22M1109 758h22" stroke="#8b948d" stroke-width="1"/>
<g>
<rect x="411" y="70" width="58" height="58" fill="#e9efe9" stroke="#2e4636" stroke-width="1.4"/>
<rect x="424" y="83" width="32" height="32" fill="#bdd0be"/>
<rect x="491" y="70" width="58" height="58" fill="#e9efe9" stroke="#2e4636" stroke-width="1.4"/>
<rect x="504" y="83" width="32" height="32" fill="#bdd0be"/>
<rect x="571" y="70" width="58" height="58" fill="#e9efe9" stroke="#2e4636" stroke-width="1.4"/>
<rect x="584" y="83" width="32" height="32" fill="#bdd0be"/>
<rect x="651" y="70" width="58" height="58" fill="#e9efe9" stroke="#2e4636" stroke-width="1.4"/>
<rect x="664" y="83" width="32" height="32" fill="#bdd0be"/>
<rect x="731" y="70" width="58" height="58" fill="#e9efe9" stroke="#2e4636" stroke-width="1.4"/>
<rect x="744" y="83" width="32" height="32" fill="#bdd0be"/>
<rect x="811" y="70" width="58" height="58" fill="#e9efe9" stroke="#2e4636" stroke-width="1.4"/>
<rect x="824" y="83" width="32" height="32" fill="#bdd0be"/>
<rect x="891" y="70" width="58" height="58" fill="#e9efe9" stroke="#2e4636" stroke-width="1.4"/>
<rect x="904" y="83" width="32" height="32" fill="#bdd0be"/>
<rect x="971" y="70" width="58" height="58" fill="#e9efe9" stroke="#2e4636" stroke-width="1.4"/>
<rect x="984" y="83" width="32" height="32" fill="#bdd0be"/>
<rect x="1051" y="70" width="58" height="58" fill="#e9efe9" stroke="#2e4636" stroke-width="1.4"/>
<rect x="1064" y="83" width="32" height="32" fill="#bdd0be"/>
<rect x="1131" y="70" width="58" height="58" fill="#e9efe9" stroke="#2e4636" stroke-width="1.4"/>
<rect x="1144" y="83" width="32" height="32" fill="#bdd0be"/>
<rect x="411" y="142" width="58" height="58" fill="#e9efe9" stroke="#2e4636" stroke-width="1.4"/>
<rect x="424" y="155" width="32" height="32" fill="#bdd0be"/>
<rect x="491" y="142" width="58" height="58" fill="#e9efe9" stroke="#2e4636" stroke-width="1.4"/>
<rect x="504" y="155" width="32" height="32" fill="#bdd0be"/>
<rect x="571" y="142" width="58" height="58" fill="#e9efe9" stroke="#2e4636" stroke-width="1.4"/>
<rect x="584" y="155" width="32" height="32" fill="#bdd0be"/>
<rect x="651" y="142" width="58" height="58" fill="#e9efe9" stroke="#2e4636" stroke-width="1.4"/>
<rect x="664" y="155" width="32" height="32" fill="#bdd0be"/>
<rect x="731" y="142" width="58" height="58" fill="#e9efe9" stroke="#2e4636" stroke-width="1.4"/>
<rect x="744" y="155" width="32" height="32" fill="#bdd0be"/>
<rect x="811" y="142" width="58" height="58" fill="#e9efe9" stroke="#2e4636" stroke-width="1.4"/>
<rect x="824" y="155" width="32" height="32" fill="#bdd0be"/>
<rect x="891" y="142" width="58" height="58" fill="#e9efe9" stroke="#2e4636" stroke-width="1.4"/>
<rect x="904" y="155" width="32" height="32" fill="#bdd0be"/>
<rect x="971" y="142" width="58" height="58" fill="#e9efe9" stroke="#2e4636" stroke-width="1.4"/>
<rect x="984" y="155" width="32" height="32" fill="#bdd0be"/>
<rect x="1051" y="142" width="58" height="58" fill="#e9efe9" stroke="#2e4636" stroke-width="1.4"/>
<rect x="1064" y="155" width="32" height="32" fill="#bdd0be"/>
<rect x="1131" y="142" width="58" height="58" fill="#e9efe9" stroke="#2e4636" stroke-width="1.4"/>
<rect x="1144" y="155" width="32" height="32" fill="#bdd0be"/>
<rect x="411" y="214" width="58" height="58" fill="#e9efe9" stroke="#2e4636" stroke-width="1.4"/>
<rect x="424" y="227" width="32" height="32" fill="#bdd0be"/>
<rect x="491" y="214" width="58" height="58" fill="#e9efe9" stroke="#2e4636" stroke-width="1.4"/>
<rect x="504" y="227" width="32" height="32" fill="#bdd0be"/>
<rect x="571" y="214" width="58" height="58" fill="#e9efe9" stroke="#2e4636" stroke-width="1.4"/>
<rect x="584" y="227" width="32" height="32" fill="#bdd0be"/>
<rect x="651" y="214" width="58" height="58" fill="#e9efe9" stroke="#2e4636" stroke-width="1.4"/>
<rect x="664" y="227" width="32" height="32" fill="#bdd0be"/>
<rect x="731" y="214" width="58" height="58" fill="#e9efe9" stroke="#2e4636" stroke-width="1.4"/>
<rect x="744" y="227" width="32" height="32" fill="#bdd0be"/>
<rect x="811" y="214" width="58" height="58" fill="#e9efe9" stroke="#2e4636" stroke-width="1.4"/>
<rect x="824" y="227" width="32" height="32" fill="#bdd0be"/>
<rect x="891" y="214" width="58" height="58" fill="#e9efe9" stroke="#2e4636" stroke-width="1.4"/>
<rect x="904" y="227" width="32" height="32" fill="#bdd0be"/>
<rect x="971" y="214" width="58" height="58" fill="#e9efe9" stroke="#2e4636" stroke-width="1.4"/>
<rect x="984" y="227" width="32" height="32" fill="#bdd0be"/>
<rect x="1051" y="214" width="58" height="58" fill="#e9efe9" stroke="#2e4636" stroke-width="1.4"/>
<rect x="1064" y="227" width="32" height="32" fill="#bdd0be"/>
<rect x="1131" y="214" width="58" height="58" fill="#e9efe9" stroke="#2e4636" stroke-width="1.4"/>
<rect x="1144" y="227" width="32" height="32" fill="#bdd0be"/>
<rect x="411" y="286" width="58" height="58" fill="#e9efe9" stroke="#2e4636" stroke-width="1.4"/>
<rect x="424" y="299" width="32" height="32" fill="#bdd0be"/>
<rect x="491" y="286" width="58" height="58" fill="#e9efe9" stroke="#2e4636" stroke-width="1.4"/>
<rect x="504" y="299" width="32" height="32" fill="#bdd0be"/>
<rect x="571" y="286" width="58" height="58" fill="#e9efe9" stroke="#2e4636" stroke-width="1.4"/>
<rect x="584" y="299" width="32" height="32" fill="#bdd0be"/>
<rect x="651" y="286" width="58" height="58" fill="#e9efe9" stroke="#2e4636" stroke-width="1.4"/>
<rect x="664" y="299" width="32" height="32" fill="#bdd0be"/>
<rect x="731" y="286" width="58" height="58" fill="#e9efe9" stroke="#2e4636" stroke-width="1.4"/>
<rect x="744" y="299" width="32" height="32" fill="#bdd0be"/>
<rect x="811" y="286" width="58" height="58" fill="#e9efe9" stroke="#2e4636" stroke-width="1.4"/>
<rect x="824" y="299" width="32" height="32" fill="#bdd0be"/>
<rect x="891" y="286" width="58" height="58" fill="#e9efe9" stroke="#2e4636" stroke-width="1.4"/>
<rect x="904" y="299" width="32" height="32" fill="#bdd0be"/>
<rect x="971" y="286" width="58" height="58" fill="#e9efe9" stroke="#2e4636" stroke-width="1.4"/>
<rect x="984" y="299" width="32" height="32" fill="#bdd0be"/>
<rect x="1051" y="286" width="58" height="58" fill="#e9efe9" stroke="#2e4636" stroke-width="1.4"/>
<rect x="1064" y="299" width="32" height="32" fill="#bdd0be"/>
<rect x="1131" y="286" width="58" height="58" fill="#e9efe9" stroke="#2e4636" stroke-width="1.4"/>
<rect x="1144" y="299" width="32" height="32" fill="#bdd0be"/>
<rect x="411" y="358" width="58" height="58" fill="#e9efe9" stroke="#2e4636" stroke-width="1.4"/>
<rect x="424" y="371" width="32" height="32" fill="#bdd0be"/>
<rect x="491" y="358" width="58" height="58" fill="#e9efe9" stroke="#2e4636" stroke-width="1.4"/>
<rect x="504" y="371" width="32" height="32" fill="#bdd0be"/>
<rect x="571" y="358" width="58" height="58" fill="#e9efe9" stroke="#2e4636" stroke-width="1.4"/>
<rect x="584" y="371" width="32" height="32" fill="#bdd0be"/>
<rect x="651" y="358" width="58" height="58" fill="#e9efe9" stroke="#2e4636" stroke-width="1.4"/>
<rect x="664" y="371" width="32" height="32" fill="#bdd0be"/>
<rect x="731" y="358" width="58" height="58" fill="#e9efe9" stroke="#2e4636" stroke-width="1.4"/>
<rect x="744" y="371" width="32" height="32" fill="#bdd0be"/>
<rect x="811" y="358" width="58" height="58" fill="#e9efe9" stroke="#2e4636" stroke-width="1.4"/>
<rect x="824" y="371" width="32" height="32" fill="#bdd0be"/>
<rect x="891" y="358" width="58" height="58" fill="#e9efe9" stroke="#2e4636" stroke-width="1.4"/>
<rect x="904" y="371" width="32" height="32" fill="#bdd0be"/>
<rect x="971" y="358" width="58" height="58" fill="#e9efe9" stroke="#2e4636" stroke-width="1.4"/>
<rect x="984" y="371" width="32" height="32" fill="#bdd0be"/>
<rect x="1051" y="358" width="58" height="58" fill="#e9efe9" stroke="#2e4636" stroke-width="1.4"/>
<rect x="1064" y="371" width="32" height="32" fill="#bdd0be"/>
<rect x="1131" y="358" width="58" height="58" fill="#e9efe9" stroke="#2e4636" stroke-width="1.4"/>
<rect x="1144" y="371" width="32" height="32" fill="#bdd0be"/>
<rect x="411" y="430" width="58" height="58" fill="#e9efe9" stroke="#2e4636" stroke-width="1.4"/>
<rect x="424" y="443" width="32" height="32" fill="#bdd0be"/>
<rect x="491" y="430" width="58" height="58" fill="#e9efe9" stroke="#2e4636" stroke-width="1.4"/>
<rect x="504" y="443" width="32" height="32" fill="#bdd0be"/>
<rect x="571" y="430" width="58" height="58" fill="#e9efe9" stroke="#2e4636" stroke-width="1.4"/>
<rect x="584" y="443" width="32" height="32" fill="#bdd0be"/>
<rect x="651" y="430" width="58" height="58" fill="#e9efe9" stroke="#2e4636" stroke-width="1.4"/>
<rect x="664" y="443" width="32" height="32" fill="#bdd0be"/>
<rect x="731" y="430" width="58" height="58" fill="#e9efe9" stroke="#2e4636" stroke-width="1.4"/>
<rect x="744" y="443" width="32" height="32" fill="#bdd0be"/>
<rect x="811" y="430" width="58" height="58" fill="#e9efe9" stroke="#2e4636" stroke-width="1.4"/>
<rect x="824" y="443" width="32" height="32" fill="#bdd0be"/>
<rect x="891" y="430" width="58" height="58" fill="#e9efe9" stroke="#2e4636" stroke-width="1.4"/>
<rect x="904" y="443" width="32" height="32" fill="#bdd0be"/>
<rect x="971" y="430" width="58" height="58" fill="#e9efe9" stroke="#2e4636" stroke-width="1.4"/>
<rect x="984" y="443" width="32" height="32" fill="#bdd0be"/>
<rect x="1051" y="430" width="58" height="58" fill="#e9efe9" stroke="#2e4636" stroke-width="1.4"/>
<rect x="1064" y="443" width="32" height="32" fill="#bdd0be"/>
<rect x="1131" y="430" width="58" height="58" fill="#e9efe9" stroke="#2e4636" stroke-width="1.4"/>
<rect x="1144" y="443" width="32" height="32" fill="#bdd0be"/>
<rect x="411" y="502" width="58" height="58" fill="#e9efe9" stroke="#2e4636" stroke-width="1.4"/>
<rect x="424" y="515" width="32" height="32" fill="#bdd0be"/>
<rect x="491" y="502" width="58" height="58" fill="#e9efe9" stroke="#2e4636" stroke-width="1.4"/>
<rect x="504" y="515" width="32" height="32" fill="#bdd0be"/>
<rect x="571" y="502" width="58" height="58" fill="#e9efe9" stroke="#2e4636" stroke-width="1.4"/>
<rect x="584" y="515" width="32" height="32" fill="#bdd0be"/>
<rect x="651" y="502" width="58" height="58" fill="#e9efe9" stroke="#2e4636" stroke-width="1.4"/>
<rect x="664" y="515" width="32" height="32" fill="#bdd0be"/>
<rect x="731" y="502" width="58" height="58" fill="#e9efe9" stroke="#2e4636" stroke-width="1.4"/>
<rect x="744" y="515" width="32" height="32" fill="#bdd0be"/>
<rect x="811" y="502" width="58" height="58" fill="#e9efe9" stroke="#2e4636" stroke-width="1.4"/>
<rect x="824" y="515" width="32" height="32" fill="#bdd0be"/>
<rect x="891" y="502" width="58" height="58" fill="#e9efe9" stroke="#2e4636" stroke-width="1.4"/>
<rect x="904" y="515" width="32" height="32" fill="#bdd0be"/>
<rect x="971" y="502" width="58" height="58" fill="#e9efe9" stroke="#2e4636" stroke-width="1.4"/>
<rect x="984" y="515" width="32" height="32" fill="#bdd0be"/>
<rect x="1051" y="502" width="58" height="58" fill="#e9efe9" stroke="#2e4636" stroke-width="1.4"/>
<rect x="1064" y="515" width="32" height="32" fill="#bdd0be"/>
<rect x="1131" y="502" width="58" height="58" fill="#e9efe9" stroke="#2e4636" stroke-width="1.4"/>
<rect x="1144" y="515" width="32" height="32" fill="#bdd0be"/>
<rect x="411" y="574" width="58" height="58" fill="#e9efe9" stroke="#2e4636" stroke-width="1.4"/>
<rect x="424" y="587" width="32" height="32" fill="#bdd0be"/>
<rect x="491" y="574" width="58" height="58" fill="#e9efe9" stroke="#2e4636" stroke-width="1.4"/>
<rect x="504" y="587" width="32" height="32" fill="#bdd0be"/>
<rect x="571" y="574" width="58" height="58" fill="#e9efe9" stroke="#2e4636" stroke-width="1.4"/>
<rect x="584" y="587" width="32" height="32" fill="#bdd0be"/>
<rect x="651" y="574" width="58" height="58" fill="#e9efe9" stroke="#2e4636" stroke-width="1.4"/>
<rect x="664" y="587" width="32" height="32" fill="#bdd0be"/>
<rect x="731" y="574" width="58" height="58" fill="#e9efe9" stroke="#2e4636" stroke-width="1.4"/>
<rect x="744" y="587" width="32" height="32" fill="#bdd0be"/>
<rect x="811" y="574" width="58" height="58" fill="#e9efe9" stroke="#2e4636" stroke-width="1.4"/>
<rect x="824" y="587" width="32" height="32" fill="#bdd0be"/>
<rect x="891" y="574" width="58" height="58" fill="#e9efe9" stroke="#2e4636" stroke-width="1.4"/>
<rect x="904" y="587" width="32" height="32" fill="#bdd0be"/>
<rect x="971" y="574" width="58" height="58" fill="#e9efe9" stroke="#2e4636" stroke-width="1.4"/>
<rect x="984" y="587" width="32" height="32" fill="#bdd0be"/>
<rect x="1051" y="574" width="58" height="58" fill="#e9efe9" stroke="#2e4636" stroke-width="1.4"/>
<rect x="1064" y="587" width="32" height="32" fill="#bdd0be"/>
<rect x="1131" y="574" width="58" height="58" fill="#e9efe9" stroke="#2e4636" stroke-width="1.4"/>
<rect x="1144" y="587" width="32" height="32" fill="#bdd0be"/>
<rect x="411" y="646" width="58" height="58" fill="#e9efe9" stroke="#2e4636" stroke-width="1.4"/>
<rect x="424" y="659" width="32" height="32" fill="#bdd0be"/>
<rect x="491" y="646" width="58" height="58" fill="#e9efe9" stroke="#2e4636" stroke-width="1.4"/>
<rect x="504" y="659" width="32" height="32" fill="#bdd0be"/>
<rect x="571" y="646" width="58" height="58" fill="#e9efe9" stroke="#2e4636" stroke-width="1.4"/>
<rect x="584" y="659" width="32" height="32" fill="#bdd0be"/>
<rect x="651" y="646" width="58" height="58" fill="#e9efe9" stroke="#2e4636" stroke-width="1.4"/>
<rect x="664" y="659" width="32" height="32" fill="#bdd0be"/>
<rect x="731" y="646" width="58" height="58" fill="#e9efe9" stroke="#2e4636" stroke-width="1.4"/>
<rect x="744" y="659" width="32" height="32" fill="#bdd0be"/>
<rect x="811" y="646" width="58" height="58" fill="#e9efe9" stroke="#2e4636" stroke-width="1.4"/>
<rect x="824" y="659" width="32" height="32" fill="#bdd0be"/>
<rect x="891" y="646" width="58" height="58" fill="#e9efe9" stroke="#2e4636" stroke-width="1.4"/>
<rect x="904" y="659" width="32" height="32" fill="#bdd0be"/>
<rect x="971" y="646" width="58" height="58" fill="#e9efe9" stroke="#2e4636" stroke-width="1.4"/>
<rect x="984" y="659" width="32" height="32" fill="#bdd0be"/>
<rect x="1051" y="646" width="58" height="58" fill="#e9efe9" stroke="#2e4636" stroke-width="1.4"/>
<rect x="1064" y="659" width="32" height="32" fill="#bdd0be"/>
<rect x="1131" y="646" width="58" height="58" fill="#e9efe9" stroke="#2e4636" stroke-width="1.4"/>
<rect x="1144" y="659" width="32" height="32" fill="#bdd0be"/>
<rect x="411" y="718" width="58" height="58" fill="#e9efe9" stroke="#2e4636" stroke-width="1.4"/>
<rect x="424" y="731" width="32" height="32" fill="#bdd0be"/>
<rect x="491" y="718" width="58" height="58" fill="#e9efe9" stroke="#2e4636" stroke-width="1.4"/>
<rect x="504" y="731" width="32" height="32" fill="#bdd0be"/>
<rect x="571" y="718" width="58" height="58" fill="#e9efe9" stroke="#2e4636" stroke-width="1.4"/>
<rect x="584" y="731" width="32" height="32" fill="#bdd0be"/>
<rect x="651" y="718" width="58" height="58" fill="#e9efe9" stroke="#2e4636" stroke-width="1.4"/>
<rect x="664" y="731" width="32" height="32" fill="#bdd0be"/>
<rect x="731" y="718" width="58" height="58" fill="#e9efe9" stroke="#2e4636" stroke-width="1.4"/>
<rect x="744" y="731" width="32" height="32" fill="#bdd0be"/>
<rect x="811" y="718" width="58" height="58" fill="#e9efe9" stroke="#2e4636" stroke-width="1.4"/>
<rect x="824" y="731" width="32" height="32" fill="#bdd0be"/>
<rect x="891" y="718" width="58" height="58" fill="#e9efe9" stroke="#2e4636" stroke-width="1.4"/>
<rect x="904" y="731" width="32" height="32" fill="#bdd0be"/>
<rect x="971" y="718" width="58" height="58" fill="#e9efe9" stroke="#2e4636" stroke-width="1.4"/>
<rect x="984" y="731" width="32" height="32" fill="#bdd0be"/>
<rect x="1051" y="718" width="58" height="58" fill="#e9efe9" stroke="#2e4636" stroke-width="1.4"/>
<rect x="1064" y="731" width="32" height="32" fill="#bdd0be"/>
<rect x="1131" y="718" width="58" height="58" fill="#e9efe9" stroke="#2e4636" stroke-width="1.4"/>
<rect x="1144" y="731" width="32" height="32" fill="#bdd0be"/>
</g>
<g>
<path d="M411 135.0H1189" stroke="#55605a" stroke-width="2"/>
<path d="M411 207.0H1189" stroke="#55605a" stroke-width="2"/>
<path d="M411 279.0H1189" stroke="#55605a" stroke-width="2"/>
<path d="M411 351.0H1189" stroke="#55605a" stroke-width="2"/>
<path d="M411 423.0H1189" stroke="#55605a" stroke-width="2"/>
<path d="M411 495.0H1189" stroke="#55605a" stroke-width="2"/>
<path d="M411 567.0H1189" stroke="#55605a" stroke-width="2"/>
<path d="M411 639.0H1189" stroke="#55605a" stroke-width="2"/>
<path d="M411 711.0H1189" stroke="#55605a" stroke-width="2"/>
</g>
<rect x="411" y="70" width="778" height="706" fill="none" stroke="#1e2622" stroke-width="2.5"/>
<path d="M337.0 776V100" stroke="#9a5a38" stroke-width="2.5"/>
<path d="M326.0 118L337.0 92L348.0 118" fill="none" stroke="#9a5a38" stroke-width="2.5"/>
<text x="321.0" y="423" fill="#9a5a38" font-size="28" letter-spacing="4" text-anchor="middle" transform="rotate(-90 321.0 423)">SLOPE UP</text>
<circle cx="1462" cy="150" r="34" fill="none" stroke="#8b948d" stroke-width="1.2"/>
<path d="M1462 124L1474 170L1462 159L1450 170Z" fill="#1e2622"/>
<text x="1462" y="208" fill="#8b948d" font-size="24" letter-spacing="3" text-anchor="middle">N</text>
<path d="M411 802v18M469 802v18" stroke="#9a5a38" stroke-width="1.2"/>
<path d="M411 811h58" stroke="#9a5a38" stroke-width="1.2"/>
<text x="440" y="836" fill="#9a5a38" font-size="26" letter-spacing="1.5" text-anchor="middle">4.5 m</text>
<text x="78" y="150" fill="#1e2622" font-size="38" letter-spacing="1.2" text-anchor="start">100 BEDS</text>
<text x="78" y="192" fill="#55605a" font-size="25" letter-spacing="1.2" text-anchor="start">Ten by ten, each about</text>
<text x="78" y="224" fill="#55605a" font-size="25" letter-spacing="1.2" text-anchor="start">4.5 m square, one species</text>
<text x="78" y="256" fill="#55605a" font-size="25" letter-spacing="1.2" text-anchor="start">of the chrysanthemum</text>
<text x="78" y="288" fill="#55605a" font-size="25" letter-spacing="1.2" text-anchor="start">family to a bed.</text>
<text x="1522" y="300" fill="#1e2622" font-size="30" letter-spacing="1.2" text-anchor="end">STAIRS</text>
<text x="1522" y="338" fill="#55605a" font-size="25" letter-spacing="1.2" text-anchor="end">run in the gaps between</text>
<text x="1522" y="370" fill="#55605a" font-size="25" letter-spacing="1.2" text-anchor="end">the columns, so the garden</text>
<text x="1522" y="402" fill="#55605a" font-size="25" letter-spacing="1.2" text-anchor="end">is climbed through</text>
<text x="1522" y="434" fill="#55605a" font-size="25" letter-spacing="1.2" text-anchor="end">rather than looked at.</text>
<text x="1522" y="500" fill="#1e2622" font-size="30" letter-spacing="1.2" text-anchor="end">EVERY ROW</text>
<text x="1522" y="538" fill="#55605a" font-size="25" letter-spacing="1.2" text-anchor="end">is a change of level —</text>
<text x="1522" y="570" fill="#55605a" font-size="25" letter-spacing="1.2" text-anchor="end">the heavy line is the</text>
<text x="1522" y="602" fill="#55605a" font-size="25" letter-spacing="1.2" text-anchor="end">retaining edge.</text>
<text x="78" y="660" fill="#8b948d" font-size="22" letter-spacing="1.2" text-anchor="start">SCHEMATIC — arrangement</text>
<text x="78" y="688" fill="#8b948d" font-size="22" letter-spacing="1.2" text-anchor="start">and dimensions from</text>
<text x="78" y="716" fill="#8b948d" font-size="22" letter-spacing="1.2" text-anchor="start">published descriptions,</text>
<text x="78" y="744" fill="#8b948d" font-size="22" letter-spacing="1.2" text-anchor="start">not from measured</text>
<text x="78" y="772" fill="#8b948d" font-size="22" letter-spacing="1.2" text-anchor="start">drawings.</text>
<path d="M1200 316 C1120 316,1105 360,1046 372" fill="none" stroke="#8b948d" stroke-width="1.2"/>
<circle cx="1046" cy="372" r="4" fill="#8b948d"/>
</g></svg>