<svg xmlns="http://www.w3.org/2000/svg" viewBox="0 0 1200 900" width="1200" height="900" role="img" aria-labelledby="ttl">
<title id="ttl">Schematic section through a single bed of Hyakudan-en at large scale, showing the cut concrete retaining wall on each side and the build-up between them of drainage gravel, filter layer, topsoil and planting.</title>
<rect width="1200" height="900" fill="#ffffff"/>
<g font-family="-apple-system, BlinkMacSystemFont, 'Segoe UI', system-ui, sans-serif">
<g>
<path d="M89.0 552.8L108.0 571.8" stroke="#8b948d" stroke-width="0.8"/>
<path d="M70.0 553.6L108.0 591.6" stroke="#8b948d" stroke-width="0.8"/>
<path d="M70.0 573.4L108.0 611.4" stroke="#8b948d" stroke-width="0.8"/>
<path d="M70.0 593.2L108.0 631.2" stroke="#8b948d" stroke-width="0.8"/>
<path d="M70.0 613.0L108.0 651.0" stroke="#8b948d" stroke-width="0.8"/>
<path d="M70.0 632.8L108.0 670.8" stroke="#8b948d" stroke-width="0.8"/>
<path d="M70.0 652.6L108.0 690.6" stroke="#8b948d" stroke-width="0.8"/>
<path d="M70.0 672.4L102.0 704.4" stroke="#8b948d" stroke-width="0.8"/>
<path d="M70.0 692.2L82.0 704.2" stroke="#8b948d" stroke-width="0.8"/>
<path d="M561.0 638.8L580.0 657.8" stroke="#8b948d" stroke-width="0.8"/>
<path d="M542.0 639.6L580.0 677.6" stroke="#8b948d" stroke-width="0.8"/>
<path d="M523.0 640.4L580.0 697.4" stroke="#8b948d" stroke-width="0.8"/>
<path d="M504.0 641.2L567.0 704.2" stroke="#8b948d" stroke-width="0.8"/>
<path d="M484.0 641.0L548.0 705.0" stroke="#8b948d" stroke-width="0.8"/>
<path d="M465.0 641.8L528.0 704.8" stroke="#8b948d" stroke-width="0.8"/>
<path d="M446.0 642.6L508.0 704.6" stroke="#8b948d" stroke-width="0.8"/>
<path d="M427.0 643.4L488.0 704.4" stroke="#8b948d" stroke-width="0.8"/>
<path d="M407.0 643.2L468.0 704.2" stroke="#8b948d" stroke-width="0.8"/>
<path d="M388.0 644.0L449.0 705.0" stroke="#8b948d" stroke-width="0.8"/>
<path d="M369.0 644.8L429.0 704.8" stroke="#8b948d" stroke-width="0.8"/>
<path d="M350.0 645.6L409.0 704.6" stroke="#8b948d" stroke-width="0.8"/>
<path d="M330.0 645.4L389.0 704.4" stroke="#8b948d" stroke-width="0.8"/>
<path d="M311.0 646.2L369.0 704.2" stroke="#8b948d" stroke-width="0.8"/>
<path d="M292.0 647.0L350.0 705.0" stroke="#8b948d" stroke-width="0.8"/>
<path d="M273.0 647.8L330.0 704.8" stroke="#8b948d" stroke-width="0.8"/>
<path d="M253.0 647.6L310.0 704.6" stroke="#8b948d" stroke-width="0.8"/>
<path d="M234.0 648.4L290.0 704.4" stroke="#8b948d" stroke-width="0.8"/>
<path d="M215.0 649.2L270.0 704.2" stroke="#8b948d" stroke-width="0.8"/>
<path d="M196.0 650.0L251.0 705.0" stroke="#8b948d" stroke-width="0.8"/>
<path d="M176.0 649.8L231.0 704.8" stroke="#8b948d" stroke-width="0.8"/>
<path d="M160.0 653.6L211.0 704.6" stroke="#8b948d" stroke-width="0.8"/>
<path d="M160.0 673.4L191.0 704.4" stroke="#8b948d" stroke-width="0.8"/>
<path d="M160.0 693.2L171.0 704.2" stroke="#8b948d" stroke-width="0.8"/>
<path d="M761.0 350.8L780.0 369.8" stroke="#8b948d" stroke-width="0.8"/>
<path d="M741.0 350.6L780.0 389.6" stroke="#8b948d" stroke-width="0.8"/>
<path d="M721.0 350.4L780.0 409.4" stroke="#8b948d" stroke-width="0.8"/>
<path d="M712.0 361.2L780.0 429.2" stroke="#8b948d" stroke-width="0.8"/>
<path d="M712.0 381.0L780.0 449.0" stroke="#8b948d" stroke-width="0.8"/>
<path d="M706.0 394.8L780.0 468.8" stroke="#8b948d" stroke-width="0.8"/>
<path d="M686.0 394.6L780.0 488.6" stroke="#8b948d" stroke-width="0.8"/>
<path d="M666.0 394.4L780.0 508.4" stroke="#8b948d" stroke-width="0.8"/>
<path d="M646.0 394.2L780.0 528.2" stroke="#8b948d" stroke-width="0.8"/>
<path d="M632.0 400.0L780.0 548.0" stroke="#8b948d" stroke-width="0.8"/>
<path d="M632.0 419.8L780.0 567.8" stroke="#8b948d" stroke-width="0.8"/>
<path d="M632.0 439.6L780.0 587.6" stroke="#8b948d" stroke-width="0.8"/>
<path d="M632.0 459.4L780.0 607.4" stroke="#8b948d" stroke-width="0.8"/>
<path d="M632.0 479.2L780.0 627.2" stroke="#8b948d" stroke-width="0.8"/>
<path d="M632.0 499.0L780.0 647.0" stroke="#8b948d" stroke-width="0.8"/>
<path d="M632.0 518.8L780.0 666.8" stroke="#8b948d" stroke-width="0.8"/>
<path d="M632.0 538.6L780.0 686.6" stroke="#8b948d" stroke-width="0.8"/>
<path d="M632.0 558.4L778.0 704.4" stroke="#8b948d" stroke-width="0.8"/>
<path d="M632.0 578.2L758.0 704.2" stroke="#8b948d" stroke-width="0.8"/>
<path d="M632.0 598.0L739.0 705.0" stroke="#8b948d" stroke-width="0.8"/>
<path d="M632.0 617.8L719.0 704.8" stroke="#8b948d" stroke-width="0.8"/>
<path d="M632.0 637.6L699.0 704.6" stroke="#8b948d" stroke-width="0.8"/>
<path d="M632.0 657.4L679.0 704.4" stroke="#8b948d" stroke-width="0.8"/>
<path d="M632.0 677.2L659.0 704.2" stroke="#8b948d" stroke-width="0.8"/>
<path d="M632.0 697.0L640.0 705.0" stroke="#8b948d" stroke-width="0.8"/>
</g>
<path d="M70 552H108" stroke="#1e2622" stroke-width="2.5"/>
<path d="M780 350V705" stroke="#8b948d" stroke-width="1"/>
<path d="M70 552V705" stroke="#8b948d" stroke-width="1"/>
<path d="M632 394V394H712V350H780" fill="none" stroke="#1e2622" stroke-width="2.5"/>
<text x="700" y="288" fill="#55605a" font-size="24" letter-spacing="3" text-anchor="start">STAIR</text>
<path d="M714 300C710 330,704 356,700 384" fill="none" stroke="#8b948d" stroke-width="1"/>
<circle cx="699" cy="387" r="4" fill="#8b948d"/>
<g>
<circle cx="182.5" cy="538.8" r="5.6" fill="none" stroke="#55605a" stroke-width="1"/>
<circle cx="180.2" cy="560.9" r="7.0" fill="none" stroke="#55605a" stroke-width="1"/>
<circle cx="206.5" cy="534.3" r="4.9" fill="none" stroke="#55605a" stroke-width="1"/>
<circle cx="213.0" cy="559.0" r="4.2" fill="none" stroke="#55605a" stroke-width="1"/>
<circle cx="238.4" cy="538.3" r="6.3" fill="none" stroke="#55605a" stroke-width="1"/>
<circle cx="242.5" cy="563.6" r="4.9" fill="none" stroke="#55605a" stroke-width="1"/>
<circle cx="249.8" cy="591.3" r="6.4" fill="none" stroke="#55605a" stroke-width="1"/>
<circle cx="250.4" cy="611.3" r="5.6" fill="none" stroke="#55605a" stroke-width="1"/>
<circle cx="279.2" cy="539.0" r="5.2" fill="none" stroke="#55605a" stroke-width="1"/>
<circle cx="270.9" cy="563.3" r="4.3" fill="none" stroke="#55605a" stroke-width="1"/>
<circle cx="278.9" cy="583.1" r="5.4" fill="none" stroke="#55605a" stroke-width="1"/>
<circle cx="275.7" cy="610.2" r="5.4" fill="none" stroke="#55605a" stroke-width="1"/>
<circle cx="308.0" cy="534.7" r="6.7" fill="none" stroke="#55605a" stroke-width="1"/>
<circle cx="313.1" cy="565.9" r="4.7" fill="none" stroke="#55605a" stroke-width="1"/>
<circle cx="301.4" cy="586.8" r="4.3" fill="none" stroke="#55605a" stroke-width="1"/>
<circle cx="310.9" cy="611.6" r="4.4" fill="none" stroke="#55605a" stroke-width="1"/>
<circle cx="337.0" cy="535.0" r="6.2" fill="none" stroke="#55605a" stroke-width="1"/>
<circle cx="339.5" cy="560.0" r="6.0" fill="none" stroke="#55605a" stroke-width="1"/>
<circle cx="333.6" cy="585.1" r="6.1" fill="none" stroke="#55605a" stroke-width="1"/>
<circle cx="343.5" cy="610.0" r="4.2" fill="none" stroke="#55605a" stroke-width="1"/>
<circle cx="372.1" cy="537.6" r="4.0" fill="none" stroke="#55605a" stroke-width="1"/>
<circle cx="371.1" cy="559.7" r="4.3" fill="none" stroke="#55605a" stroke-width="1"/>
<circle cx="367.4" cy="585.9" r="5.4" fill="none" stroke="#55605a" stroke-width="1"/>
<circle cx="366.6" cy="615.2" r="6.6" fill="none" stroke="#55605a" stroke-width="1"/>
<circle cx="406.6" cy="531.7" r="5.9" fill="none" stroke="#55605a" stroke-width="1"/>
<circle cx="405.9" cy="557.1" r="5.2" fill="none" stroke="#55605a" stroke-width="1"/>
<circle cx="406.1" cy="592.5" r="6.8" fill="none" stroke="#55605a" stroke-width="1"/>
<circle cx="405.0" cy="614.9" r="6.9" fill="none" stroke="#55605a" stroke-width="1"/>
<circle cx="431.9" cy="536.1" r="4.2" fill="none" stroke="#55605a" stroke-width="1"/>
<circle cx="439.8" cy="563.5" r="4.6" fill="none" stroke="#55605a" stroke-width="1"/>
<circle cx="431.8" cy="588.2" r="6.3" fill="none" stroke="#55605a" stroke-width="1"/>
<circle cx="430.9" cy="612.2" r="5.5" fill="none" stroke="#55605a" stroke-width="1"/>
<circle cx="464.7" cy="539.8" r="6.2" fill="none" stroke="#55605a" stroke-width="1"/>
<circle cx="474.4" cy="563.4" r="6.0" fill="none" stroke="#55605a" stroke-width="1"/>
<circle cx="465.0" cy="588.0" r="5.3" fill="none" stroke="#55605a" stroke-width="1"/>
<circle cx="467.7" cy="609.6" r="6.5" fill="none" stroke="#55605a" stroke-width="1"/>
<circle cx="495.2" cy="535.6" r="6.8" fill="none" stroke="#55605a" stroke-width="1"/>
<circle cx="500.2" cy="565.7" r="4.8" fill="none" stroke="#55605a" stroke-width="1"/>
<circle cx="499.5" cy="586.8" r="5.0" fill="none" stroke="#55605a" stroke-width="1"/>
<circle cx="498.2" cy="613.5" r="6.5" fill="none" stroke="#55605a" stroke-width="1"/>
<circle cx="538.6" cy="531.9" r="6.0" fill="none" stroke="#55605a" stroke-width="1"/>
<circle cx="532.4" cy="561.1" r="4.1" fill="none" stroke="#55605a" stroke-width="1"/>
<circle cx="530.1" cy="586.2" r="5.1" fill="none" stroke="#55605a" stroke-width="1"/>
<circle cx="533.3" cy="612.7" r="4.9" fill="none" stroke="#55605a" stroke-width="1"/>
<circle cx="560.8" cy="540.8" r="5.2" fill="none" stroke="#55605a" stroke-width="1"/>
<circle cx="570.6" cy="558.7" r="6.0" fill="none" stroke="#55605a" stroke-width="1"/>
<circle cx="564.8" cy="590.1" r="5.5" fill="none" stroke="#55605a" stroke-width="1"/>
<circle cx="569.2" cy="614.9" r="4.1" fill="none" stroke="#55605a" stroke-width="1"/>
</g>
<g>
<circle cx="174.9" cy="413.6" r="1.6" fill="#8b948d"/>
<circle cx="175.7" cy="437.7" r="1.6" fill="#8b948d"/>
<circle cx="166.4" cy="451.0" r="1.9" fill="#8b948d"/>
<circle cx="171.1" cy="469.0" r="1.8" fill="#8b948d"/>
<circle cx="172.8" cy="497.1" r="1.7" fill="#8b948d"/>
<circle cx="200.6" cy="414.5" r="1.6" fill="#8b948d"/>
<circle cx="193.5" cy="439.0" r="1.6" fill="#8b948d"/>
<circle cx="195.2" cy="451.3" r="1.9" fill="#8b948d"/>
<circle cx="200.7" cy="469.7" r="1.6" fill="#8b948d"/>
<circle cx="189.0" cy="490.8" r="1.8" fill="#8b948d"/>
<circle cx="219.8" cy="418.2" r="1.8" fill="#8b948d"/>
<circle cx="220.4" cy="426.4" r="1.6" fill="#8b948d"/>
<circle cx="217.0" cy="450.4" r="2.0" fill="#8b948d"/>
<circle cx="218.7" cy="469.9" r="1.8" fill="#8b948d"/>
<circle cx="214.5" cy="491.6" r="1.9" fill="#8b948d"/>
<circle cx="237.4" cy="415.6" r="1.8" fill="#8b948d"/>
<circle cx="237.0" cy="435.4" r="2.2" fill="#8b948d"/>
<circle cx="247.8" cy="458.8" r="2.2" fill="#8b948d"/>
<circle cx="240.3" cy="474.8" r="2.0" fill="#8b948d"/>
<circle cx="242.4" cy="502.5" r="1.7" fill="#8b948d"/>
<circle cx="260.3" cy="406.3" r="1.7" fill="#8b948d"/>
<circle cx="260.3" cy="434.5" r="2.2" fill="#8b948d"/>
<circle cx="274.9" cy="460.8" r="1.6" fill="#8b948d"/>
<circle cx="262.9" cy="469.0" r="2.1" fill="#8b948d"/>
<circle cx="260.4" cy="490.0" r="1.9" fill="#8b948d"/>
<circle cx="299.2" cy="412.5" r="1.5" fill="#8b948d"/>
<circle cx="284.6" cy="437.5" r="2.0" fill="#8b948d"/>
<circle cx="289.0" cy="460.8" r="1.6" fill="#8b948d"/>
<circle cx="286.4" cy="481.5" r="1.4" fill="#8b948d"/>
<circle cx="289.8" cy="491.5" r="1.9" fill="#8b948d"/>
<circle cx="315.8" cy="408.5" r="1.9" fill="#8b948d"/>
<circle cx="309.7" cy="439.8" r="2.0" fill="#8b948d"/>
<circle cx="311.3" cy="455.3" r="1.6" fill="#8b948d"/>
<circle cx="317.2" cy="472.4" r="1.6" fill="#8b948d"/>
<circle cx="315.9" cy="490.0" r="2.2" fill="#8b948d"/>
<circle cx="344.6" cy="408.2" r="1.9" fill="#8b948d"/>
<circle cx="334.8" cy="428.3" r="1.7" fill="#8b948d"/>
<circle cx="343.5" cy="448.0" r="2.1" fill="#8b948d"/>
<circle cx="336.0" cy="470.3" r="1.8" fill="#8b948d"/>
<circle cx="346.5" cy="494.8" r="1.8" fill="#8b948d"/>
<circle cx="371.8" cy="412.4" r="1.7" fill="#8b948d"/>
<circle cx="359.0" cy="433.3" r="1.9" fill="#8b948d"/>
<circle cx="365.5" cy="449.7" r="1.4" fill="#8b948d"/>
<circle cx="371.4" cy="477.6" r="2.1" fill="#8b948d"/>
<circle cx="369.5" cy="495.0" r="1.5" fill="#8b948d"/>
<circle cx="395.4" cy="417.6" r="1.5" fill="#8b948d"/>
<circle cx="390.1" cy="433.0" r="1.4" fill="#8b948d"/>
<circle cx="389.1" cy="456.1" r="1.8" fill="#8b948d"/>
<circle cx="384.1" cy="480.4" r="1.9" fill="#8b948d"/>
<circle cx="384.5" cy="499.9" r="2.1" fill="#8b948d"/>
<circle cx="410.2" cy="413.0" r="1.5" fill="#8b948d"/>
<circle cx="406.1" cy="437.9" r="2.2" fill="#8b948d"/>
<circle cx="418.9" cy="449.1" r="2.0" fill="#8b948d"/>
<circle cx="410.3" cy="471.0" r="2.1" fill="#8b948d"/>
<circle cx="405.5" cy="490.1" r="1.7" fill="#8b948d"/>
<circle cx="430.3" cy="410.6" r="1.9" fill="#8b948d"/>
<circle cx="436.2" cy="438.9" r="1.8" fill="#8b948d"/>
<circle cx="430.3" cy="454.7" r="1.4" fill="#8b948d"/>
<circle cx="438.6" cy="470.2" r="1.8" fill="#8b948d"/>
<circle cx="435.0" cy="502.0" r="1.5" fill="#8b948d"/>
<circle cx="456.5" cy="409.6" r="1.8" fill="#8b948d"/>
<circle cx="458.2" cy="439.7" r="2.1" fill="#8b948d"/>
<circle cx="467.1" cy="456.4" r="2.0" fill="#8b948d"/>
<circle cx="460.8" cy="470.8" r="1.5" fill="#8b948d"/>
<circle cx="455.0" cy="499.7" r="1.9" fill="#8b948d"/>
<circle cx="476.5" cy="409.1" r="1.5" fill="#8b948d"/>
<circle cx="484.4" cy="430.8" r="1.8" fill="#8b948d"/>
<circle cx="481.9" cy="452.6" r="1.8" fill="#8b948d"/>
<circle cx="488.6" cy="469.0" r="2.0" fill="#8b948d"/>
<circle cx="485.4" cy="500.1" r="1.5" fill="#8b948d"/>
<circle cx="504.6" cy="417.7" r="2.2" fill="#8b948d"/>
<circle cx="504.4" cy="431.3" r="1.7" fill="#8b948d"/>
<circle cx="505.2" cy="460.3" r="1.8" fill="#8b948d"/>
<circle cx="506.8" cy="480.6" r="1.9" fill="#8b948d"/>
<circle cx="515.0" cy="498.1" r="1.8" fill="#8b948d"/>
<circle cx="525.3" cy="412.0" r="1.8" fill="#8b948d"/>
<circle cx="533.9" cy="437.9" r="1.7" fill="#8b948d"/>
<circle cx="532.8" cy="458.5" r="2.2" fill="#8b948d"/>
<circle cx="537.2" cy="471.7" r="2.1" fill="#8b948d"/>
<circle cx="534.8" cy="493.4" r="1.8" fill="#8b948d"/>
<circle cx="560.7" cy="416.3" r="1.6" fill="#8b948d"/>
<circle cx="555.8" cy="435.3" r="1.5" fill="#8b948d"/>
<circle cx="560.2" cy="458.1" r="1.9" fill="#8b948d"/>
<circle cx="563.3" cy="472.4" r="1.6" fill="#8b948d"/>
<circle cx="563.5" cy="497.6" r="1.4" fill="#8b948d"/>
</g>
<path d="M160 518H580" stroke="#55605a" stroke-width="1.5" stroke-dasharray="10 8"/>
<path d="M160 650L580 638" stroke="#1e2622" stroke-width="2.5"/>
<path d="M160 400H580" stroke="#2e4636" stroke-width="2.5"/>
<g>
<path d="M184.0 399.0C181.0 373.2,169.0 368.1,169.8 352.6" fill="none" stroke="#2e4636" stroke-width="2" stroke-linecap="round"/>
<path d="M184.0 399.0C185.5 370.7,182.5 357.8,184.0 347.5" fill="none" stroke="#2e4636" stroke-width="2" stroke-linecap="round"/>
<path d="M184.0 399.0C187.0 373.2,199.0 368.1,198.2 354.7" fill="none" stroke="#2e4636" stroke-width="2" stroke-linecap="round"/>
<path d="M222.0 399.0C219.0 374.5,207.0 369.6,207.8 354.9" fill="none" stroke="#2e4636" stroke-width="2" stroke-linecap="round"/>
<path d="M222.0 399.0C223.5 372.1,220.5 359.8,222.0 350.0" fill="none" stroke="#2e4636" stroke-width="2" stroke-linecap="round"/>
<path d="M222.0 399.0C225.0 374.5,237.0 369.6,236.2 356.9" fill="none" stroke="#2e4636" stroke-width="2" stroke-linecap="round"/>
<path d="M260.0 399.0C257.0 368.9,245.0 362.9,245.8 344.8" fill="none" stroke="#2e4636" stroke-width="2" stroke-linecap="round"/>
<path d="M260.0 399.0C261.5 365.9,258.5 350.8,260.0 338.8" fill="none" stroke="#2e4636" stroke-width="2" stroke-linecap="round"/>
<path d="M260.0 399.0C263.0 368.9,275.0 362.9,274.2 347.2" fill="none" stroke="#2e4636" stroke-width="2" stroke-linecap="round"/>
<path d="M298.0 399.0C295.0 367.3,283.0 361.0,283.8 341.9" fill="none" stroke="#2e4636" stroke-width="2" stroke-linecap="round"/>
<path d="M298.0 399.0C299.5 364.1,296.5 348.3,298.0 335.6" fill="none" stroke="#2e4636" stroke-width="2" stroke-linecap="round"/>
<path d="M298.0 399.0C301.0 367.3,313.0 361.0,312.2 344.5" fill="none" stroke="#2e4636" stroke-width="2" stroke-linecap="round"/>
<path d="M336.0 399.0C333.0 376.5,321.0 372.0,321.8 358.5" fill="none" stroke="#2e4636" stroke-width="2" stroke-linecap="round"/>
<path d="M336.0 399.0C337.5 374.2,334.5 363.0,336.0 354.0" fill="none" stroke="#2e4636" stroke-width="2" stroke-linecap="round"/>
<path d="M336.0 399.0C339.0 376.5,351.0 372.0,350.2 360.3" fill="none" stroke="#2e4636" stroke-width="2" stroke-linecap="round"/>
<path d="M374.0 399.0C371.0 370.5,359.0 364.9,359.8 347.8" fill="none" stroke="#2e4636" stroke-width="2" stroke-linecap="round"/>
<path d="M374.0 399.0C375.5 367.7,372.5 353.5,374.0 342.1" fill="none" stroke="#2e4636" stroke-width="2" stroke-linecap="round"/>
<path d="M374.0 399.0C377.0 370.5,389.0 364.9,388.2 350.1" fill="none" stroke="#2e4636" stroke-width="2" stroke-linecap="round"/>
<path d="M412.0 399.0C409.0 368.6,397.0 362.5,397.8 344.3" fill="none" stroke="#2e4636" stroke-width="2" stroke-linecap="round"/>
<path d="M412.0 399.0C413.5 365.5,410.5 350.3,412.0 338.2" fill="none" stroke="#2e4636" stroke-width="2" stroke-linecap="round"/>
<path d="M412.0 399.0C415.0 368.6,427.0 362.5,426.2 346.7" fill="none" stroke="#2e4636" stroke-width="2" stroke-linecap="round"/>
<path d="M450.0 399.0C447.0 376.7,435.0 372.3,435.8 358.9" fill="none" stroke="#2e4636" stroke-width="2" stroke-linecap="round"/>
<path d="M450.0 399.0C451.5 374.5,448.5 363.4,450.0 354.5" fill="none" stroke="#2e4636" stroke-width="2" stroke-linecap="round"/>
<path d="M450.0 399.0C453.0 376.7,465.0 372.3,464.2 360.7" fill="none" stroke="#2e4636" stroke-width="2" stroke-linecap="round"/>
<path d="M488.0 399.0C485.0 373.1,473.0 368.0,473.8 352.4" fill="none" stroke="#2e4636" stroke-width="2" stroke-linecap="round"/>
<path d="M488.0 399.0C489.5 370.6,486.5 357.6,488.0 347.3" fill="none" stroke="#2e4636" stroke-width="2" stroke-linecap="round"/>
<path d="M488.0 399.0C491.0 373.1,503.0 368.0,502.2 354.5" fill="none" stroke="#2e4636" stroke-width="2" stroke-linecap="round"/>
<path d="M526.0 399.0C523.0 377.6,511.0 373.4,511.8 360.5" fill="none" stroke="#2e4636" stroke-width="2" stroke-linecap="round"/>
<path d="M526.0 399.0C527.5 375.5,524.5 364.8,526.0 356.3" fill="none" stroke="#2e4636" stroke-width="2" stroke-linecap="round"/>
<path d="M526.0 399.0C529.0 377.6,541.0 373.4,540.2 362.2" fill="none" stroke="#2e4636" stroke-width="2" stroke-linecap="round"/>
<path d="M564.0 399.0C561.0 374.1,549.0 369.1,549.8 354.2" fill="none" stroke="#2e4636" stroke-width="2" stroke-linecap="round"/>
<path d="M564.0 399.0C565.5 371.6,562.5 359.2,564.0 349.2" fill="none" stroke="#2e4636" stroke-width="2" stroke-linecap="round"/>
<path d="M564.0 399.0C567.0 374.1,579.0 369.1,578.2 356.2" fill="none" stroke="#2e4636" stroke-width="2" stroke-linecap="round"/>
</g>
<circle cx="200" cy="592" r="19" fill="#dbe8ea" stroke="#1e2622" stroke-width="2"/>
<circle cx="200" cy="592" r="11" fill="#ffffff" stroke="#1e2622" stroke-width="1.5"/>
<path d="M210.6 596.4L217.1 599.1" stroke="#1e2622" stroke-width="1"/>
<path d="M204.4 602.6L207.1 609.1" stroke="#1e2622" stroke-width="1"/>
<path d="M195.6 602.6L192.9 609.1" stroke="#1e2622" stroke-width="1"/>
<path d="M189.4 596.4L182.9 599.1" stroke="#1e2622" stroke-width="1"/>
<path d="M189.4 587.6L182.9 584.9" stroke="#1e2622" stroke-width="1"/>
<path d="M195.6 581.4L192.9 574.9" stroke="#1e2622" stroke-width="1"/>
<path d="M204.4 581.4L207.1 574.9" stroke="#1e2622" stroke-width="1"/>
<path d="M210.6 587.6L217.1 584.9" stroke="#1e2622" stroke-width="1"/>
<path d="M500 596L250 606" fill="none" stroke="#7fa3ac" stroke-width="2.5"/>
<path d="M272 594L248 606.5L273 616" fill="none" stroke="#7fa3ac" stroke-width="2.5"/>
<rect x="430" y="556" width="84" height="32" fill="#ffffff"/>
<text x="508" y="578" fill="#7fa3ac" font-size="22" letter-spacing="3" text-anchor="end">FALL</text>
<rect x="108" y="370" width="52" height="335" fill="#ffffff"/>
<path d="M109.0 388.0L125.0 372.0" stroke="#8b948d" stroke-width="0.8"/>
<path d="M109.0 404.9L142.0 371.9" stroke="#8b948d" stroke-width="0.8"/>
<path d="M109.0 421.9L159.0 371.9" stroke="#8b948d" stroke-width="0.8"/>
<path d="M109.0 438.9L159.0 388.9" stroke="#8b948d" stroke-width="0.8"/>
<path d="M109.0 455.9L159.0 405.9" stroke="#8b948d" stroke-width="0.8"/>
<path d="M109.0 472.8L159.0 422.8" stroke="#8b948d" stroke-width="0.8"/>
<path d="M109.0 489.8L159.0 439.8" stroke="#8b948d" stroke-width="0.8"/>
<path d="M109.0 506.8L159.0 456.8" stroke="#8b948d" stroke-width="0.8"/>
<path d="M109.0 523.7L159.0 473.7" stroke="#8b948d" stroke-width="0.8"/>
<path d="M109.0 540.7L159.0 490.7" stroke="#8b948d" stroke-width="0.8"/>
<path d="M109.0 557.7L159.0 507.7" stroke="#8b948d" stroke-width="0.8"/>
<path d="M109.0 574.6L159.0 524.6" stroke="#8b948d" stroke-width="0.8"/>
<path d="M109.0 591.6L159.0 541.6" stroke="#8b948d" stroke-width="0.8"/>
<path d="M109.0 608.6L159.0 558.6" stroke="#8b948d" stroke-width="0.8"/>
<path d="M109.0 625.6L159.0 575.6" stroke="#8b948d" stroke-width="0.8"/>
<path d="M109.0 642.5L159.0 592.5" stroke="#8b948d" stroke-width="0.8"/>
<path d="M109.0 659.5L159.0 609.5" stroke="#8b948d" stroke-width="0.8"/>
<path d="M109.0 676.5L159.0 626.5" stroke="#8b948d" stroke-width="0.8"/>
<path d="M109.0 693.4L159.0 643.4" stroke="#8b948d" stroke-width="0.8"/>
<path d="M116.0 703.4L159.0 660.4" stroke="#8b948d" stroke-width="0.8"/>
<path d="M133.0 703.4L159.0 677.4" stroke="#8b948d" stroke-width="0.8"/>
<path d="M150.0 703.4L159.0 694.4" stroke="#8b948d" stroke-width="0.8"/>
<rect x="108" y="370" width="52" height="335" fill="none" stroke="#1e2622" stroke-width="2.5"/>
<rect x="580" y="370" width="52" height="335" fill="#ffffff"/>
<path d="M581.0 388.0L597.0 372.0" stroke="#8b948d" stroke-width="0.8"/>
<path d="M581.0 404.9L614.0 371.9" stroke="#8b948d" stroke-width="0.8"/>
<path d="M581.0 421.9L631.0 371.9" stroke="#8b948d" stroke-width="0.8"/>
<path d="M581.0 438.9L631.0 388.9" stroke="#8b948d" stroke-width="0.8"/>
<path d="M581.0 455.9L631.0 405.9" stroke="#8b948d" stroke-width="0.8"/>
<path d="M581.0 472.8L631.0 422.8" stroke="#8b948d" stroke-width="0.8"/>
<path d="M581.0 489.8L631.0 439.8" stroke="#8b948d" stroke-width="0.8"/>
<path d="M581.0 506.8L631.0 456.8" stroke="#8b948d" stroke-width="0.8"/>
<path d="M581.0 523.7L631.0 473.7" stroke="#8b948d" stroke-width="0.8"/>
<path d="M581.0 540.7L631.0 490.7" stroke="#8b948d" stroke-width="0.8"/>
<path d="M581.0 557.7L631.0 507.7" stroke="#8b948d" stroke-width="0.8"/>
<path d="M581.0 574.6L631.0 524.6" stroke="#8b948d" stroke-width="0.8"/>
<path d="M581.0 591.6L631.0 541.6" stroke="#8b948d" stroke-width="0.8"/>
<path d="M581.0 608.6L631.0 558.6" stroke="#8b948d" stroke-width="0.8"/>
<path d="M581.0 625.6L631.0 575.6" stroke="#8b948d" stroke-width="0.8"/>
<path d="M581.0 642.5L631.0 592.5" stroke="#8b948d" stroke-width="0.8"/>
<path d="M581.0 659.5L631.0 609.5" stroke="#8b948d" stroke-width="0.8"/>
<path d="M581.0 676.5L631.0 626.5" stroke="#8b948d" stroke-width="0.8"/>
<path d="M581.0 693.4L631.0 643.4" stroke="#8b948d" stroke-width="0.8"/>
<path d="M588.0 703.4L631.0 660.4" stroke="#8b948d" stroke-width="0.8"/>
<path d="M605.0 703.4L631.0 677.4" stroke="#8b948d" stroke-width="0.8"/>
<path d="M622.0 703.4L631.0 694.4" stroke="#8b948d" stroke-width="0.8"/>
<rect x="580" y="370" width="52" height="335" fill="none" stroke="#1e2622" stroke-width="2.5"/>
<text x="564" y="328" fill="#55605a" font-size="22" letter-spacing="3" text-anchor="end">PLANTING</text>
<rect x="170" y="418" width="138" height="32" fill="#ffffff"/>
<text x="176" y="440" fill="#55605a" font-size="22" letter-spacing="3" text-anchor="start">TOPSOIL</text>
<rect x="170" y="486" width="228" height="32" fill="#ffffff"/>
<text x="176" y="508" fill="#55605a" font-size="22" letter-spacing="3" text-anchor="start">FILTER LAYER</text>
<path d="M182 514V517" stroke="#8b948d" stroke-width="1"/>
<rect x="170" y="530" width="281" height="32" fill="#ffffff"/>
<text x="176" y="552" fill="#55605a" font-size="22" letter-spacing="3" text-anchor="start">DRAINAGE GRAVEL</text>
<rect x="244" y="662" width="299" height="32" fill="#ffffff"/>
<text x="250" y="684" fill="#55605a" font-size="22" letter-spacing="3" text-anchor="start">PERFORATED DRAIN</text>
<path d="M248 664C232 648,220 630,213 611" fill="none" stroke="#8b948d" stroke-width="1"/>
<circle cx="212" cy="609" r="4" fill="#8b948d"/>
<g transform="rotate(-90 134 560)">
<rect x="20" y="536" width="228" height="32" fill="#ffffff"/>
<text x="134" y="560" fill="#55605a" font-size="22" letter-spacing="3" text-anchor="middle">CUT CONCRETE</text>
</g>
<path d="M160 714V758M580 714V758" stroke="#8b948d" stroke-width="1"/>
<path d="M160 733v18M580 733v18" stroke="#9a5a38" stroke-width="1.2"/>
<path d="M160 742H580" stroke="#9a5a38" stroke-width="1.2"/>
<text x="370" y="778" fill="#9a5a38" font-size="26" letter-spacing="1.5" text-anchor="middle">4.5 m</text>
<path d="M508 400h24M508 518h24" stroke="#9a5a38" stroke-width="1.2"/>
<path d="M520 400V518" stroke="#9a5a38" stroke-width="1.2"/>
<rect x="352" y="441" width="154" height="34" fill="#ffffff"/>
<text x="500" y="465" fill="#9a5a38" font-size="24" letter-spacing="1" text-anchor="end">0.6 m est.</text>
<text x="856" y="194" fill="#1e2622" font-size="28" letter-spacing="3" text-anchor="start">KEY</text>
<rect x="856" y="226" width="200" height="36" fill="#ffffff" stroke="#8b948d" stroke-width="1"/>
<rect x="856" y="226" width="200" height="36" fill="#e9efe9"/>
<path d="M856 256h200" stroke="#2e4636" stroke-width="1.5"/>
<path d="M876.0 256.0C874.6 246.0,869.0 244.0,869.4 238.0" fill="none" stroke="#2e4636" stroke-width="1.4" stroke-linecap="round"/>
<path d="M876.0 256.0C876.7 245.0,875.3 240.0,876.0 236.0" fill="none" stroke="#2e4636" stroke-width="1.4" stroke-linecap="round"/>
<path d="M876.0 256.0C877.4 246.0,883.0 244.0,882.6 238.8" fill="none" stroke="#2e4636" stroke-width="1.4" stroke-linecap="round"/>
<path d="M908.0 256.0C906.6 246.0,901.0 244.0,901.4 238.0" fill="none" stroke="#2e4636" stroke-width="1.4" stroke-linecap="round"/>
<path d="M908.0 256.0C908.7 245.0,907.3 240.0,908.0 236.0" fill="none" stroke="#2e4636" stroke-width="1.4" stroke-linecap="round"/>
<path d="M908.0 256.0C909.4 246.0,915.0 244.0,914.6 238.8" fill="none" stroke="#2e4636" stroke-width="1.4" stroke-linecap="round"/>
<path d="M940.0 256.0C938.6 246.0,933.0 244.0,933.4 238.0" fill="none" stroke="#2e4636" stroke-width="1.4" stroke-linecap="round"/>
<path d="M940.0 256.0C940.7 245.0,939.3 240.0,940.0 236.0" fill="none" stroke="#2e4636" stroke-width="1.4" stroke-linecap="round"/>
<path d="M940.0 256.0C941.4 246.0,947.0 244.0,946.6 238.8" fill="none" stroke="#2e4636" stroke-width="1.4" stroke-linecap="round"/>
<path d="M972.0 256.0C970.6 246.0,965.0 244.0,965.4 238.0" fill="none" stroke="#2e4636" stroke-width="1.4" stroke-linecap="round"/>
<path d="M972.0 256.0C972.7 245.0,971.3 240.0,972.0 236.0" fill="none" stroke="#2e4636" stroke-width="1.4" stroke-linecap="round"/>
<path d="M972.0 256.0C973.4 246.0,979.0 244.0,978.6 238.8" fill="none" stroke="#2e4636" stroke-width="1.4" stroke-linecap="round"/>
<path d="M1004.0 256.0C1002.6 246.0,997.0 244.0,997.4 238.0" fill="none" stroke="#2e4636" stroke-width="1.4" stroke-linecap="round"/>
<path d="M1004.0 256.0C1004.7 245.0,1003.3 240.0,1004.0 236.0" fill="none" stroke="#2e4636" stroke-width="1.4" stroke-linecap="round"/>
<path d="M1004.0 256.0C1005.4 246.0,1011.0 244.0,1010.6 238.8" fill="none" stroke="#2e4636" stroke-width="1.4" stroke-linecap="round"/>
<path d="M1036.0 256.0C1034.6 246.0,1029.0 244.0,1029.3 238.0" fill="none" stroke="#2e4636" stroke-width="1.4" stroke-linecap="round"/>
<path d="M1036.0 256.0C1036.7 245.0,1035.3 240.0,1036.0 236.0" fill="none" stroke="#2e4636" stroke-width="1.4" stroke-linecap="round"/>
<path d="M1036.0 256.0C1037.4 246.0,1043.0 244.0,1042.7 238.8" fill="none" stroke="#2e4636" stroke-width="1.4" stroke-linecap="round"/>
<rect x="856" y="226" width="200" height="36" fill="none" stroke="#8b948d" stroke-width="1"/>
<text x="856" y="294" fill="#1e2622" font-size="24" letter-spacing="2" text-anchor="start">PLANTING</text>
<text x="856" y="324" fill="#55605a" font-size="22" letter-spacing="1" text-anchor="start">One species to a bed.</text>
<rect x="856" y="366" width="200" height="36" fill="#ffffff" stroke="#8b948d" stroke-width="1"/>
<circle cx="971.5" cy="389.4" r="1.6" fill="#8b948d"/>
<circle cx="985.8" cy="385.4" r="1.7" fill="#8b948d"/>
<circle cx="957.1" cy="391.8" r="2.0" fill="#8b948d"/>
<circle cx="940.7" cy="391.6" r="1.8" fill="#8b948d"/>
<circle cx="950.9" cy="376.9" r="1.8" fill="#8b948d"/>
<circle cx="872.7" cy="393.0" r="1.7" fill="#8b948d"/>
<circle cx="929.6" cy="393.3" r="1.9" fill="#8b948d"/>
<circle cx="947.5" cy="393.4" r="1.9" fill="#8b948d"/>
<circle cx="1023.8" cy="377.8" r="2.0" fill="#8b948d"/>
<circle cx="1040.2" cy="381.4" r="2.0" fill="#8b948d"/>
<circle cx="1045.1" cy="386.4" r="2.0" fill="#8b948d"/>
<circle cx="882.8" cy="374.0" r="2.1" fill="#8b948d"/>
<circle cx="1006.7" cy="375.0" r="2.0" fill="#8b948d"/>
<circle cx="889.0" cy="393.1" r="2.1" fill="#8b948d"/>
<circle cx="962.0" cy="378.8" r="2.0" fill="#8b948d"/>
<circle cx="1025.0" cy="375.1" r="1.8" fill="#8b948d"/>
<circle cx="984.0" cy="390.8" r="1.4" fill="#8b948d"/>
<circle cx="1013.1" cy="387.2" r="2.1" fill="#8b948d"/>
<circle cx="886.3" cy="381.8" r="1.9" fill="#8b948d"/>
<circle cx="1030.8" cy="381.8" r="2.2" fill="#8b948d"/>
<circle cx="961.7" cy="394.8" r="2.2" fill="#8b948d"/>
<circle cx="877.0" cy="376.3" r="1.7" fill="#8b948d"/>
<circle cx="962.4" cy="389.5" r="1.9" fill="#8b948d"/>
<circle cx="926.9" cy="375.6" r="1.7" fill="#8b948d"/>
<circle cx="1048.5" cy="376.0" r="1.5" fill="#8b948d"/>
<circle cx="963.4" cy="375.6" r="2.0" fill="#8b948d"/>
<circle cx="951.8" cy="373.0" r="1.8" fill="#8b948d"/>
<circle cx="993.6" cy="386.2" r="1.6" fill="#8b948d"/>
<circle cx="1038.7" cy="373.8" r="1.4" fill="#8b948d"/>
<circle cx="907.8" cy="394.0" r="1.8" fill="#8b948d"/>
<circle cx="985.6" cy="380.6" r="1.7" fill="#8b948d"/>
<circle cx="944.6" cy="375.9" r="1.9" fill="#8b948d"/>
<circle cx="920.8" cy="395.7" r="2.0" fill="#8b948d"/>
<circle cx="897.5" cy="395.3" r="1.5" fill="#8b948d"/>
<circle cx="1036.0" cy="382.6" r="2.1" fill="#8b948d"/>
<circle cx="960.9" cy="382.1" r="1.7" fill="#8b948d"/>
<circle cx="968.1" cy="384.8" r="1.5" fill="#8b948d"/>
<circle cx="952.1" cy="383.5" r="2.1" fill="#8b948d"/>
<circle cx="893.2" cy="376.0" r="1.5" fill="#8b948d"/>
<circle cx="935.5" cy="381.9" r="1.7" fill="#8b948d"/>
<circle cx="878.3" cy="395.0" r="1.4" fill="#8b948d"/>
<circle cx="990.3" cy="376.7" r="1.8" fill="#8b948d"/>
<circle cx="937.0" cy="384.1" r="1.5" fill="#8b948d"/>
<circle cx="902.7" cy="373.4" r="2.0" fill="#8b948d"/>
<circle cx="866.4" cy="388.5" r="1.6" fill="#8b948d"/>
<circle cx="882.2" cy="392.7" r="2.0" fill="#8b948d"/>
<rect x="856" y="366" width="200" height="36" fill="none" stroke="#8b948d" stroke-width="1"/>
<text x="856" y="434" fill="#1e2622" font-size="24" letter-spacing="2" text-anchor="start">TOPSOIL</text>
<text x="856" y="464" fill="#55605a" font-size="22" letter-spacing="1" text-anchor="start">Graded soil, free of</text>
<text x="856" y="492" fill="#55605a" font-size="22" letter-spacing="1" text-anchor="start">stone and debris.</text>
<rect x="856" y="506" width="200" height="36" fill="#ffffff" stroke="#8b948d" stroke-width="1"/>
<path d="M864 524h184" stroke="#55605a" stroke-width="1.5" stroke-dasharray="10 8"/>
<rect x="856" y="506" width="200" height="36" fill="none" stroke="#8b948d" stroke-width="1"/>
<text x="856" y="574" fill="#1e2622" font-size="24" letter-spacing="2" text-anchor="start">FILTER LAYER</text>
<text x="856" y="604" fill="#55605a" font-size="22" letter-spacing="1" text-anchor="start">Geotextile keeping soil</text>
<text x="856" y="632" fill="#55605a" font-size="22" letter-spacing="1" text-anchor="start">out of the gravel.</text>
<rect x="856" y="646" width="200" height="36" fill="#ffffff" stroke="#8b948d" stroke-width="1"/>
<circle cx="870.0" cy="658.0" r="4.3" fill="none" stroke="#55605a" stroke-width="1"/>
<circle cx="887.5" cy="666.0" r="4.5" fill="none" stroke="#55605a" stroke-width="1"/>
<circle cx="905.0" cy="674.0" r="5.5" fill="none" stroke="#55605a" stroke-width="1"/>
<circle cx="922.5" cy="658.0" r="4.6" fill="none" stroke="#55605a" stroke-width="1"/>
<circle cx="940.0" cy="666.0" r="5.5" fill="none" stroke="#55605a" stroke-width="1"/>
<circle cx="957.5" cy="674.0" r="5.1" fill="none" stroke="#55605a" stroke-width="1"/>
<circle cx="975.0" cy="658.0" r="5.1" fill="none" stroke="#55605a" stroke-width="1"/>
<circle cx="992.5" cy="666.0" r="4.6" fill="none" stroke="#55605a" stroke-width="1"/>
<circle cx="1010.0" cy="674.0" r="5.1" fill="none" stroke="#55605a" stroke-width="1"/>
<circle cx="1027.5" cy="658.0" r="5.8" fill="none" stroke="#55605a" stroke-width="1"/>
<circle cx="1045.0" cy="666.0" r="4.2" fill="none" stroke="#55605a" stroke-width="1"/>
<rect x="856" y="646" width="200" height="36" fill="none" stroke="#8b948d" stroke-width="1"/>
<text x="856" y="714" fill="#1e2622" font-size="24" letter-spacing="2" text-anchor="start">DRAINAGE GRAVEL</text>
<text x="856" y="744" fill="#55605a" font-size="22" letter-spacing="1" text-anchor="start">Washed stone around a</text>
<text x="856" y="772" fill="#55605a" font-size="22" letter-spacing="1" text-anchor="start">perforated drain.</text>
<text x="70" y="130" fill="#1e2622" font-size="34" letter-spacing="1.2" text-anchor="start">HOW ONE BED WORKS</text>
<text x="70" y="172" fill="#55605a" font-size="25" letter-spacing="1.2" text-anchor="start">A planted box between two</text>
<text x="70" y="204" fill="#55605a" font-size="25" letter-spacing="1.2" text-anchor="start">walls: water falls through</text>
<text x="70" y="236" fill="#55605a" font-size="25" letter-spacing="1.2" text-anchor="start">the soil, is held back from</text>
<text x="70" y="268" fill="#55605a" font-size="25" letter-spacing="1.2" text-anchor="start">the gravel by the filter,</text>
<text x="70" y="300" fill="#55605a" font-size="25" letter-spacing="1.2" text-anchor="start">and leaves by the drain.</text>
<text x="70" y="800" fill="#8b948d" font-size="22" letter-spacing="1.2" text-anchor="start">SCHEMATIC BUILD-UP — the layers are drawn thicker than</text>
<text x="70" y="828" fill="#8b948d" font-size="22" letter-spacing="1.2" text-anchor="start">scale and the depths are estimates, not the project detail.</text>
</g></svg>